# xmcd
#
# Track frame offsets:
#	182
#	16855
#	34320
#	47292
#	59347
#	72212
#	87605
#	99920
#	113690
#	125265
#	143225
#	157305
#	170340
#	183567
#
# Disc length: 2601 seconds
#
# Revision: 0
# Processed by: cddbd v1.4PL0 Copyright (c) Steve Scherf et al.
# Submitted via: EasyCDDAExtractor 4.6.0.1
#
DISCID=ba0a270e
DTITLE=Coleccion Centenaria
DYEAR=2000
DGENRE=latin
TTITLE0=Con La Misma Piedra - Grupo Limite
TTITLE1=Si Se Acabo El Amor - Intocable
TTITLE2=El Narizon - Los Tucanes
TTITLE3=Mira m'hija - Pesado
TTITLE4=Mi Golondrina - Ramon Ayala
TTITLE5=Ojala - La Fuerza Del Amor
TTITLE6=Guerita - Banda Machos
TTITLE7=Que Linda Es Lupe - Tigrillos
TTITLE8=Como Me Duele Amor - La Mafia
TTITLE9=Margarita - Bobby Pulido
TTITLE10=Mi Chatita - Michael Salgado
TTITLE11=Te Seguire - Los Palominos
TTITLE12=Arena Mojada - Edgar Cortazar
TTITLE13=Golpe Traidor - El Recodo_Yolanda del Rio
EXTD=
EXTT0=
EXTT1=
EXTT2=
EXTT3=
EXTT4=
EXTT5=
EXTT6=
EXTT7=
EXTT8=
EXTT9=
EXTT10=
EXTT11=
EXTT12=
EXTT13=
PLAYORDER=
